<?xml version="1.0" encoding="UTF-8" standalone="no"?>
<!-- Generator: Adobe Illustrator 22.0.1, SVG Export Plug-In . SVG Version: 6.00 Build 0)  -->

<svg
   xmlns:dc="http://purl.org/dc/elements/1.1/"
   xmlns:cc="http://creativecommons.org/ns#"
   xmlns:rdf="http://www.w3.org/1999/02/22-rdf-syntax-ns#"
   xmlns:svg="http://www.w3.org/2000/svg"
   xmlns="http://www.w3.org/2000/svg"
   xmlns:sodipodi="http://sodipodi.sourceforge.net/DTD/sodipodi-0.dtd"
   xmlns:inkscape="http://www.inkscape.org/namespaces/inkscape"
   version="1.1"
   id="Layer_1"
   x="0px"
   y="0px"
   viewBox="0 0 72 72"
   xml:space="preserve"
   width="150"
   height="150"
   inkscape:version="0.91 r13725"
   sodipodi:docname="icon-128.svg"><metadata
   id="metadata3375"><rdf:RDF><cc:Work
       rdf:about=""><dc:format>image/svg+xml</dc:format><dc:type
         rdf:resource="http://purl.org/dc/dcmitype/StillImage" /><dc:title></dc:title></cc:Work></rdf:RDF></metadata><defs
   id="defs3373" /><sodipodi:namedview
   pagecolor="#ffffff"
   bordercolor="#666666"
   borderopacity="1"
   objecttolerance="10"
   gridtolerance="10000"
   guidetolerance="10"
   inkscape:pageopacity="0"
   inkscape:pageshadow="2"
   inkscape:window-width="1474"
   inkscape:window-height="841"
   id="namedview3371"
   showgrid="true"
   inkscape:zoom="2.8284271"
   inkscape:cx="-89.707918"
   inkscape:cy="79.089455"
   inkscape:window-x="1142"
   inkscape:window-y="-8"
   inkscape:window-maximized="1"
   inkscape:current-layer="Layer_1"
   showguides="false"><inkscape:grid
     type="xygrid"
     id="grid3384" /></sodipodi:namedview>





<g
   id="g3408"
   inkscape:export-xdpi="11.25"
   inkscape:export-ydpi="11.25"><g
     style="opacity:1"
     transform="matrix(1.7066667,0,0,1.7066667,-5.4400002,-27.417602)"
     id="g3377"><path
       style="fill:#ff8f00"
       d="m 39,52.519 -30,0 c -1.657,0 -3,-1.343 -3,-3 L 6,22.44 c 0,-1.657 1.343,-3 3,-3 l 30,0 c 1.657,0 3,1.343 3,3 l 0,27.079 c 0,1.657 -1.343,3 -3,3 z"
       id="path3361"
       inkscape:connector-curvature="0" /><path
       style="fill:#dd2c00"
       d="m 39,55.44 -30,0 c -1.657,0 -3,-1.343 -3,-3 l 0,-25 c 0,-1.657 1.343,-3 3,-3 l 30,0 c 1.657,0 3,1.343 3,3 l 0,25 c 0,1.657 -1.343,3 -3,3 z"
       id="path3363"
       inkscape:connector-curvature="0" /><circle
       style="fill:#b71c1c"
       cx="15"
       cy="30.440001"
       r="2"
       id="circle3365" /><circle
       style="fill:#b71c1c"
       cx="33"
       cy="30.440001"
       r="2"
       id="circle3367" /><path
       style="fill:none;stroke:#ffffff;stroke-width:2;stroke-linecap:round;stroke-miterlimit:10"
       d="m 33,30.44 c 0,4.971 -4.029,9 -9,9 -4.971,0 -9,-4.029 -9,-9"
       id="path3369"
       inkscape:connector-curvature="0" /></g><text
     sodipodi:linespacing="125%"
     id="text3386"
     y="63.253098"
     x="22.060877"
     style="font-style:normal;font-weight:normal;font-size:12px;line-height:125%;font-family:sans-serif;letter-spacing:0px;word-spacing:0px;fill:#000000;fill-opacity:1;stroke:none;stroke-width:1px;stroke-linecap:butt;stroke-linejoin:miter;stroke-opacity:1"
     xml:space="preserve"><tspan
       style="font-style:normal;font-variant:normal;font-weight:normal;font-stretch:normal;font-size:24px;font-family:Arial;-inkscape-font-specification:Arial;fill:#ffffff"
       y="63.253098"
       x="22.060877"
       id="tspan3388"
       sodipodi:role="line">TP</tspan></text>
</g></svg>